<svg width="995" height="770" viewBox="0 0 995 770" fill="none" xmlns="http://www.w3.org/2000/svg">
<path d="M37.1632 474.01C25.2841 462.046 15.864 447.688 9.47586 431.809C3.08774 415.93 -0.134791 398.862 0.00431917 381.644C0.143429 364.425 3.64127 347.416 10.285 331.652C16.9288 315.887 26.5796 301.697 38.6503 289.943L301.313 34.2078C315.922 19.971 333.669 9.70436 352.988 4.31495C372.306 -1.07446 392.6 -1.42075 412.077 3.30669L900.867 122.089C927.811 128.635 951.814 144.55 968.923 167.215C986.032 189.88 995.228 217.944 994.996 246.784L992.677 533.933C992.439 562.771 982.792 590.666 965.321 613.027C947.851 635.388 923.599 650.882 896.557 656.959L405.914 767.163C386.363 771.546 366.078 770.842 346.85 765.113C327.623 759.385 310.044 748.808 295.667 734.317L37.1632 474.01Z" fill="url(#paint0_linear_32_55)"/>
<defs>
<linearGradient id="paint0_linear_32_55" x1="-0.00178085" y1="384.998" x2="994.996" y2="384.998" gradientUnits="userSpaceOnUse">
<stop stop-color="#00108D"/>
<stop offset="1" stop-color="#00FAD8"/>
</linearGradient>
</defs>
</svg>
