<?xml version="1.0" encoding="UTF-8"?>
<svg id="Layer_1" data-name="Layer 1" xmlns="http://www.w3.org/2000/svg" width="245" height="150" viewBox="0 0 245 150">
  <g style="opacity: .75;">
    <path d="M235.39,118.39c-28.91,0-42.98-6.93-57.87-14.27-14.7-7.24-29.89-14.74-59.83-14.74s-45.13,7.49-59.83,14.74C42.98,111.46,28.91,118.39,0,118.39v5.59c29.94,0,45.13-7.49,59.83-14.74,14.89-7.34,28.96-14.27,57.87-14.27s42.98,6.93,57.87,14.27c14.7,7.24,29.89,14.74,59.83,14.74,1.36,0,2.46-1.25,2.46-2.8s-1.1-2.8-2.46-2.8Zm0-21.96c-28.91,0-42.98-6.93-57.87-14.27-14.7-7.24-29.89-14.74-59.83-14.74s-45.13,7.49-59.83,14.74C42.98,89.5,28.91,96.43,0,96.43v5.59c29.94,0,45.13-7.49,59.83-14.74,14.89-7.34,28.96-14.27,57.87-14.27s42.98,6.93,57.87,14.27c14.7,7.24,29.89,14.74,59.83,14.74,1.36,0,2.46-1.25,2.46-2.8s-1.1-2.8-2.46-2.8Zm0,43.93c-28.91,0-42.98-6.93-57.87-14.27-14.7-7.24-29.89-14.74-59.83-14.74s-45.13,7.49-59.83,14.74C42.98,133.43,28.91,140.36,0,140.36v5.59c29.94,0,45.13-7.49,59.83-14.74,14.89-7.34,28.96-14.27,57.87-14.27s42.98,6.93,57.87,14.27c14.7,7.24,29.89,14.74,59.83,14.74,1.36,0,2.46-1.25,2.46-2.8s-1.1-2.8-2.46-2.8Zm0-65.89c-28.91,0-42.98-6.93-57.87-14.27-14.7-7.24-29.89-14.74-59.83-14.74s-45.13,7.49-59.83,14.74C42.98,67.53,28.91,74.47,0,74.47v5.59c29.94,0,45.13-7.49,59.83-14.74,14.89-7.34,28.96-14.27,57.87-14.27s42.98,6.93,57.87,14.27c14.7,7.24,29.89,14.74,59.83,14.74,1.36,0,2.46-1.25,2.46-2.8s-1.1-2.8-2.46-2.8Zm0-21.97c-28.91,0-42.98-6.93-57.87-14.27-14.7-7.24-29.89-14.74-59.83-14.74s-45.13,7.49-59.83,14.74C42.98,45.57,28.91,52.5,0,52.5v5.59c29.94,0,45.13-7.49,59.83-14.74,14.89-7.34,28.96-14.27,57.87-14.27s42.98,6.93,57.87,14.27c14.7,7.24,29.89,14.74,59.83,14.74,1.36,0,2.46-1.25,2.46-2.8s-1.1-2.8-2.46-2.8ZM117.7,7.12c28.91,0,42.98,6.93,57.87,14.27,14.7,7.24,29.89,14.74,59.83,14.74,1.36,0,2.46-1.25,2.46-2.8s-1.1-2.8-2.46-2.8c-28.91,0-42.98-6.93-57.87-14.27-14.7-7.24-29.89-14.74-59.83-14.74s-45.13,7.49-59.83,14.74C42.98,23.6,28.91,30.54,0,30.54v5.59c29.94,0,45.13-7.49,59.83-14.74,14.89-7.34,28.96-14.27,57.87-14.27Z" style="fill: #61057e;"/>
  </g>
</svg>